Comme-ExtraLight.ufo
<glyph name="numbersign" format="1">
  <advance width="1175"/>
  <unicode hex="0023"/>
  <outline>
    <contour>
      <point x="246" y="0" type="line"/>
      <point x="312" y="0" type="line"/>
      <point x="401" y="435" type="line"/>
      <point x="695" y="435" type="line"/>
      <point x="609" y="0" type="line"/>
      <point x="675" y="0" type="line"/>
      <point x="763" y="435" type="line"/>
      <point x="950" y="435" type="line"/>
      <point x="962" y="499" type="line"/>
      <point x="776" y="499" type="line"/>
      <point x="870" y="964" type="line"/>
      <point x="1039" y="964" type="line"/>
      <point x="1051" y="1028" type="line"/>
      <point x="883" y="1028" type="line"/>
      <point x="968" y="1456" type="line"/>
      <point x="902" y="1456" type="line"/>
      <point x="816" y="1028" type="line"/>
      <point x="521" y="1028" type="line"/>
      <point x="606" y="1456" type="line"/>
      <point x="540" y="1456" type="line"/>
      <point x="454" y="1028" type="line"/>
      <point x="281" y="1028" type="line"/>
      <point x="273" y="964" type="line"/>
      <point x="440" y="964" type="line"/>
      <point x="347" y="499" type="line"/>
      <point x="193" y="499" type="line"/>
      <point x="184" y="435" type="line"/>
      <point x="334" y="435" type="line"/>
    </contour>
    <contour>
      <point x="414" y="499" type="line"/>
      <point x="508" y="964" type="line"/>
      <point x="802" y="964" type="line"/>
      <point x="708" y="499" type="line"/>
    </contour>
  </outline>
</glyph>
<glyph name="ampersand" format="1">
  <advance width="1499"/>
  <unicode hex="0026"/>
  <outline>
    <contour>
      <point x="1275" y="-26" type="line"/>
      <point x="1326" y="20" type="line"/>
      <point x="631" y="787" type="line"/>
      <point x="856" y="880"/>
      <point x="1020" y="1006"/>
      <point x="1020" y="1167" type="curve" smooth="yes"/>
      <point x="1020" y="1351"/>
      <point x="893" y="1474"/>
      <point x="704" y="1474" type="curve" smooth="yes"/>
      <point x="477" y="1474"/>
      <point x="326" y="1355"/>
      <point x="326" y="1176" type="curve" smooth="yes"/>
      <point x="326" y="1045"/>
      <point x="386" y="963"/>
      <point x="520" y="806" type="curve"/>
      <point x="317" y="681"/>
      <point x="211" y="527"/>
      <point x="211" y="357" type="curve" smooth="yes"/>
      <point x="211" y="110"/>
      <point x="383" y="-19"/>
      <point x="712" y="-19" type="curve" smooth="yes"/>
      <point x="1010" y="-19"/>
      <point x="1277" y="219"/>
      <point x="1381" y="480" type="curve"/>
      <point x="1332" y="518" type="line"/>
      <point x="1237" y="275"/>
      <point x="986" y="45"/>
      <point x="724" y="45" type="curve" smooth="yes"/>
      <point x="441" y="45"/>
      <point x="294" y="155"/>
      <point x="294" y="365" type="curve" smooth="yes"/>
      <point x="294" y="514"/>
      <point x="390" y="647"/>
      <point x="573" y="754" type="curve"/>
    </contour>
    <contour>
      <point x="587" y="833" type="curve"/>
      <point x="423" y="1009"/>
      <point x="391" y="1064"/>
      <point x="391" y="1180" type="curve" smooth="yes"/>
      <point x="391" y="1319"/>
      <point x="515" y="1411"/>
      <point x="700" y="1411" type="curve" smooth="yes"/>
      <point x="854" y="1411"/>
      <point x="956" y="1318"/>
      <point x="956" y="1178" type="curve" smooth="yes"/>
      <point x="956" y="1020"/>
      <point x="770" y="914"/>
    </contour>
  </outline>
</glyph>
<glyph name="quotesingle" format="1">
  <advance width="218"/>
  <unicode hex="0027"/>
  <outline>
    <contour>
      <point x="75" y="1003" type="line"/>
      <point x="130" y="1003" type="line"/>
      <point x="142" y="1457" type="line"/>
      <point x="68" y="1457" type="line"/>
    </contour>
  </outline>
</glyph>
<glyph name="parenright" format="1">
  <advance width="687"/>
  <unicode hex="0029"/>
  <outline>
    <contour>
      <point x="135" y="1568" type="line"/>
      <point x="348" y="1237"/>
      <point x="374" y="986"/>
      <point x="374" y="702" type="curve"/>
      <point x="471" y="702" type="line"/>
      <point x="471" y="1011"/>
      <point x="395" y="1318"/>
      <point x="222" y="1580" type="curve"/>
      <point x="135" y="1580" type="line"/>
    </contour>
    <contour>
      <point x="222" y="-176" type="line"/>
      <point x="395" y="86"/>
      <point x="471" y="393"/>
      <point x="471" y="702" type="curve"/>
      <point x="374" y="702" type="line"/>
      <point x="374" y="418"/>
      <point x="348" y="167"/>
      <point x="135" y="-164" type="curve"/>
      <point x="135" y="-176" type="line"/>
    </contour>
  </outline>
</glyph>
<glyph name="plus" format="1">
  <advance width="1152"/>
  <unicode hex="002B"/>
  <outline>
    <contour>
      <point x="540" y="1050" type="line"/>
      <point x="540" y="655" type="line"/>
      <point x="161" y="655" type="line"/>
      <point x="161" y="604" type="line"/>
      <point x="540" y="604" type="line"/>
      <point x="540" y="197" type="line"/>
      <point x="610" y="197" type="line"/>
      <point x="610" y="604" type="line"/>
      <point x="979" y="604" type="line"/>
      <point x="979" y="655" type="line"/>
      <point x="610" y="655" type="line"/>
      <point x="610" y="1050" type="line"/>
    </contour>
  </outline>
</glyph>
<glyph name="comma" format="1">
  <advance width="447"/>
  <unicode hex="002C"/>
  <outline>
    <contour>
      <point x="204" y="315" type="move" name="_bot"/>
    </contour>
    <contour>
      <point x="155" y="-293" type="curve"/>
      <point x="189" y="-293" type="line"/>
      <point x="189" y="-293"/>
      <point x="266" y="118"/>
      <point x="266" y="168" type="curve" smooth="yes"/>
      <point x="266" y="195" type="line"/>
      <point x="158" y="195" type="line"/>
      <point x="158" y="70"/>
      <point x="155" y="-293"/>
    </contour>
  </outline>
</glyph>
<glyph name="period" format="1">
  <advance width="445"/>
  <unicode hex="002E"/>
  <outline>
    <contour>
      <point x="228" y="-21" type="curve" smooth="yes"/>
      <point x="292" y="-21"/>
      <point x="303" y="23"/>
      <point x="303" y="57" type="curve" smooth="yes"/>
      <point x="303" y="90"/>
      <point x="292" y="134"/>
      <point x="228" y="134" type="curve" smooth="yes"/>
      <point x="161" y="134"/>
      <point x="152" y="90"/>
      <point x="152" y="57" type="curve" smooth="yes"/>
      <point x="152" y="24"/>
      <point x="164" y="-21"/>
    </contour>
  </outline>
</glyph>
<glyph name="zero" format="1">
  <advance width="1234"/>
  <unicode hex="0030"/>
  <outline>
    <contour>
      <point x="620" y="57" type="curve" smooth="yes"/>
      <point x="412" y="57"/>
      <point x="235" y="201"/>
      <point x="235" y="727" type="curve"/>
      <point x="232" y="1222"/>
      <point x="410" y="1397"/>
      <point x="620" y="1397" type="curve" smooth="yes"/>
      <point x="827" y="1397"/>
      <point x="990" y="1272"/>
      <point x="990" y="730" type="curve" smooth="yes"/>
      <point x="990" y="203"/>
      <point x="827" y="57"/>
    </contour>
    <contour>
      <point x="620" y="-20" type="curve" smooth="yes"/>
      <point x="931" y="-20"/>
      <point x="1076" y="249"/>
      <point x="1076" y="726" type="curve" smooth="yes"/>
      <point x="1076" y="1239"/>
      <point x="905" y="1476"/>
      <point x="620" y="1476" type="curve" smooth="yes"/>
      <point x="332" y="1476"/>
      <point x="146" y="1236"/>
      <point x="146" y="726" type="curve" smooth="yes"/>
      <point x="146" y="249"/>
      <point x="308" y="-20"/>
    </contour>
  </outline>
</glyph>
<glyph name="four" format="1">
  <advance width="1196"/>
  <unicode hex="0034"/>
  <outline>
    <contour>
      <point x="831" y="0" type="line"/>
      <point x="911" y="0" type="line"/>
      <point x="911" y="408" type="line"/>
      <point x="1087" y="408" type="line"/>
      <point x="1096" y="476" type="line"/>
      <point x="911" y="476" type="line"/>
      <point x="910" y="1456" type="line"/>
      <point x="856" y="1456" type="line"/>
      <point x="130" y="515" type="line"/>
      <point x="130" y="408" type="line"/>
      <point x="831" y="408" type="line"/>
    </contour>
    <contour>
      <point x="218" y="479" type="line"/>
      <point x="829" y="1313" type="line"/>
      <point x="829" y="479" type="line"/>
    </contour>
  </outline>
</glyph>
<glyph name="six" format="1">
  <advance width="1196"/>
  <unicode hex="0036"/>
  <outline>
    <contour>
      <point x="625" y="-20" type="curve" smooth="yes"/>
      <point x="908" y="-20"/>
      <point x="1061" y="189"/>
      <point x="1061" y="421" type="curve" smooth="yes"/>
      <point x="1061" y="679"/>
      <point x="851" y="834"/>
      <point x="645" y="834" type="curve" smooth="yes"/>
      <point x="503" y="834"/>
      <point x="365" y="777"/>
      <point x="303" y="693" type="curve"/>
      <point x="309" y="688" type="line"/>
      <point x="464" y="927" type="line"/>
      <point x="808" y="1439" type="line"/>
      <point x="808" y="1456" type="line"/>
      <point x="725" y="1456" type="line"/>
      <point x="433" y="1015" type="line"/>
      <point x="282" y="789"/>
      <point x="194" y="657"/>
      <point x="194" y="424" type="curve" smooth="yes"/>
      <point x="194" y="216"/>
      <point x="323" y="-20"/>
    </contour>
    <contour>
      <point x="624" y="54" type="curve" smooth="yes"/>
      <point x="387" y="54"/>
      <point x="271" y="230"/>
      <point x="271" y="413" type="curve" smooth="yes"/>
      <point x="271" y="713"/>
      <point x="534" y="764"/>
      <point x="633" y="764" type="curve" smooth="yes"/>
      <point x="849" y="764"/>
      <point x="983" y="616"/>
      <point x="983" y="422" type="curve" smooth="yes"/>
      <point x="983" y="235"/>
      <point x="858" y="54"/>
    </contour>
  </outline>
</glyph>
<glyph name="colon" format="1">
  <advance width="464"/>
  <unicode hex="003A"/>
  <outline>
    <contour>
      <point x="218" y="897" type="curve" smooth="yes"/>
      <point x="282" y="897"/>
      <point x="293" y="941"/>
      <point x="293" y="975" type="curve" smooth="yes"/>
      <point x="293" y="1008"/>
      <point x="282" y="1052"/>
      <point x="218" y="1052" type="curve" smooth="yes"/>
      <point x="151" y="1052"/>
      <point x="142" y="1008"/>
      <point x="142" y="975" type="curve" smooth="yes"/>
      <point x="142" y="942"/>
      <point x="154" y="897"/>
    </contour>
    <contour>
      <point x="218" y="-20" type="curve" smooth="yes"/>
      <point x="282" y="-20"/>
      <point x="293" y="24"/>
      <point x="293" y="58" type="curve" smooth="yes"/>
      <point x="293" y="91"/>
      <point x="282" y="135"/>
      <point x="218" y="135" type="curve" smooth="yes"/>
      <point x="151" y="135"/>
      <point x="142" y="91"/>
      <point x="142" y="58" type="curve" smooth="yes"/>
      <point x="142" y="25"/>
      <point x="154" y="-20"/>
    </contour>
  </outline>
</glyph>
<glyph name="greater" format="1">
  <advance width="1244"/>
  <unicode hex="003E"/>
  <outline>
    <contour>
      <point x="152" y="1017" type="line"/>
      <point x="993" y="585" type="line"/>
      <point x="148" y="195" type="line"/>
      <point x="148" y="113" type="line"/>
      <point x="1088" y="551" type="line"/>
      <point x="1088" y="610" type="line"/>
      <point x="152" y="1103" type="line"/>
    </contour>
  </outline>
</glyph>
<glyph name="B" format="1">
  <advance width="1366"/>
  <unicode hex="0042"/>
  <outline>
    <contour>
      <point x="688" y="1456" type="move" name="top"/>
    </contour>
    <contour>
      <point x="572" y="-13" type="curve" smooth="yes"/>
      <point x="1143" y="-13"/>
      <point x="1245" y="130"/>
      <point x="1245" y="399" type="curve" smooth="yes"/>
      <point x="1245" y="619"/>
      <point x="1104" y="743"/>
      <point x="828" y="773" type="curve"/>
      <point x="828" y="740" type="line"/>
      <point x="1129" y="797"/>
      <point x="1182" y="922"/>
      <point x="1182" y="1104" type="curve" smooth="yes"/>
      <point x="1182" y="1345"/>
      <point x="1060" y="1467"/>
      <point x="546" y="1467" type="curve" smooth="yes"/>
      <point x="452" y="1467"/>
      <point x="345" y="1463"/>
      <point x="223" y="1455" type="curve"/>
      <point x="223" y="0" type="line"/>
      <point x="355" y="-9"/>
      <point x="471" y="-13"/>
    </contour>
    <contour>
      <point x="309" y="24" type="line"/>
      <point x="309" y="758" type="line"/>
      <point x="265" y="729" type="line"/>
      <point x="647" y="729" type="line" smooth="yes"/>
      <point x="992" y="729"/>
      <point x="1159" y="652"/>
      <point x="1159" y="392" type="curve" smooth="yes"/>
      <point x="1159" y="145"/>
      <point x="1073" y="57"/>
      <point x="601" y="57" type="curve" smooth="yes"/>
      <point x="506" y="57"/>
      <point x="395" y="60"/>
      <point x="266" y="67" type="curve"/>
    </contour>
    <contour>
      <point x="309" y="770" type="line"/>
      <point x="309" y="1427" type="line"/>
      <point x="268" y="1386" type="line"/>
      <point x="383" y="1391"/>
      <point x="483" y="1394"/>
      <point x="570" y="1394" type="curve" smooth="yes"/>
      <point x="994" y="1394"/>
      <point x="1104" y="1326"/>
      <point x="1104" y="1098" type="curve" smooth="yes"/>
      <point x="1104" y="850"/>
      <point x="948" y="802"/>
      <point x="735" y="802" type="curve" smooth="yes"/>
      <point x="264" y="802" type="line"/>
    </contour>
  </outline>
</glyph>
<glyph name="E" format="1">
  <advance width="1121"/>
  <unicode hex="0045"/>
  <outline>
    <contour>
      <point x="656" y="1455" type="move" name="top"/>
    </contour>
    <contour>
      <point x="561" y="0" type="move" name="bot"/>
    </contour>
    <contour>
      <point x="768" y="0" type="move" name="ogonek"/>
    </contour>
    <contour>
      <point x="223" y="1455" type="line"/>
      <point x="223" y="0" type="line"/>
      <point x="1062" y="0" type="line"/>
      <point x="1069" y="67" type="line"/>
      <point x="272" y="67" type="line"/>
      <point x="309" y="29" type="line"/>
      <point x="309" y="736" type="line"/>
      <point x="272" y="711" type="line"/>
      <point x="983" y="711" type="line"/>
      <point x="983" y="779" type="line"/>
      <point x="272" y="779" type="line"/>
      <point x="309" y="746" type="line"/>
      <point x="309" y="1416" type="line"/>
      <point x="275" y="1386" type="line"/>
      <point x="1069" y="1386" type="line"/>
      <point x="1071" y="1455" type="line"/>
    </contour>
  </outline>
</glyph>
<glyph name="J" format="1">
  <advance width="664"/>
  <unicode hex="004A"/>
  <outline>
    <contour>
      <point x="401" y="1455" type="move" name="top"/>
    </contour>
    <contour>
      <point x="332" y="0" type="move" name="bot"/>
    </contour>
    <contour>
      <point x="356" y="1455" type="line"/>
      <point x="356" y="64" type="line" smooth="yes"/>
      <point x="356" y="-153"/>
      <point x="307" y="-177"/>
      <point x="125" y="-253" type="curve" smooth="yes"/>
      <point x="65" y="-278" type="line"/>
      <point x="94" y="-350" type="line"/>
      <point x="149" y="-328" type="line" smooth="yes"/>
      <point x="386" y="-233"/>
      <point x="442" y="-177"/>
      <point x="442" y="101" type="curve" smooth="yes"/>
      <point x="442" y="1455" type="line"/>
    </contour>
  </outline>
</glyph>
<glyph name="O" format="1">
  <advance width="1646"/>
  <unicode hex="004F"/>
  <outline>
    <contour>
      <point x="823" y="1455" type="move" name="top"/>
    </contour>
    <contour>
      <point x="823" y="0" type="move" name="bot"/>
    </contour>
    <contour>
      <point x="918" y="0" type="move" name="ogonek"/>
    </contour>
    <contour>
      <point x="147" y="714" type="curve" smooth="yes"/>
      <point x="147" y="283"/>
      <point x="355" y="-19"/>
      <point x="827" y="-19" type="curve" smooth="yes"/>
      <point x="1289" y="-19"/>
      <point x="1500" y="292"/>
      <point x="1500" y="710" type="curve" smooth="yes"/>
      <point x="1500" y="1156"/>
      <point x="1270" y="1474"/>
      <point x="828" y="1474" type="curve" smooth="yes"/>
      <point x="370" y="1474"/>
      <point x="147" y="1162"/>
    </contour>
    <contour>
      <point x="1414" y="714" type="curve" smooth="yes"/>
      <point x="1414" y="327"/>
      <point x="1253" y="48"/>
      <point x="824" y="48" type="curve" smooth="yes"/>
      <point x="396" y="48"/>
      <point x="233" y="327"/>
      <point x="233" y="714" type="curve" smooth="yes"/>
      <point x="233" y="1125"/>
      <point x="414" y="1407"/>
      <point x="827" y="1407" type="curve" smooth="yes"/>
      <point x="1241" y="1407"/>
      <point x="1414" y="1121"/>
    </contour>
  </outline>
</glyph>
<glyph name="U" format="1">
  <advance width="1453"/>
  <unicode hex="0055"/>
  <outline>
    <contour>
      <point x="727" y="1455" type="move" name="top"/>
    </contour>
    <contour>
      <point x="727" y="0" type="move" name="bot"/>
    </contour>
    <contour>
      <point x="799" y="0" type="move" name="ogonek"/>
    </contour>
    <contour>
      <point x="1194" y="1455" type="line"/>
      <point x="1194" y="534" type="line" smooth="yes"/>
      <point x="1194" y="221"/>
      <point x="1043" y="48"/>
      <point x="728" y="48" type="curve" smooth="yes"/>
      <point x="393" y="48"/>
      <point x="260" y="222"/>
      <point x="260" y="535" type="curve" smooth="yes"/>
      <point x="260" y="1455" type="line"/>
      <point x="174" y="1455" type="line"/>
      <point x="174" y="543" type="line" smooth="yes"/>
      <point x="174" y="224"/>
      <point x="324" y="-19"/>
      <point x="728" y="-19" type="curve" smooth="yes"/>
      <point x="1127" y="-19"/>
      <point x="1280" y="234"/>
      <point x="1280" y="539" type="curve" smooth="yes"/>
      <point x="1280" y="1455" type="line"/>
    </contour>
  </outline>
</glyph>
<glyph name="V" format="1">
  <advance width="1332"/>
  <unicode hex="0056"/>
  <outline>
    <contour>
      <point x="657" y="0" type="line"/>
      <point x="677" y="0" type="line"/>
      <point x="1260" y="1455" type="line"/>
      <point x="1179" y="1455" type="line"/>
      <point x="793" y="461" type="line"/>
      <point x="637" y="75" type="line"/>
      <point x="693" y="75" type="line"/>
      <point x="538" y="455" type="line"/>
      <point x="155" y="1455" type="line"/>
      <point x="73" y="1455" type="line"/>
    </contour>
  </outline>
</glyph>
<glyph name="W" format="1">
  <advance width="2091"/>
  <unicode hex="0057"/>
  <outline>
    <contour>
      <point x="1046" y="1455" type="move" name="top"/>
    </contour>
    <contour>
      <point x="1046" y="0" type="move" name="bot"/>
    </contour>
    <contour>
      <point x="1946" y="1454" type="line"/>
      <point x="1497" y="33" type="line"/>
      <point x="1541" y="33" type="line"/>
      <point x="1096" y="1406" type="line"/>
      <point x="999" y="1406" type="line"/>
      <point x="565" y="30" type="line"/>
      <point x="608" y="30" type="line"/>
      <point x="142" y="1454" type="line"/>
      <point x="66" y="1454" type="line"/>
      <point x="545" y="0" type="line"/>
      <point x="630" y="0" type="line"/>
      <point x="1075" y="1415" type="line"/>
      <point x="1024" y="1415" type="line"/>
      <point x="1472" y="0" type="line"/>
      <point x="1561" y="0" type="line"/>
      <point x="2026" y="1454" type="line"/>
    </contour>
  </outline>
</glyph>
<glyph name="asciicircum" format="1">
  <advance width="1377"/>
  <unicode hex="005E"/>
  <outline>
    <contour>
      <point x="641" y="1517" type="line"/>
      <point x="224" y="624" type="line"/>
      <point x="282" y="624" type="line"/>
      <point x="675" y="1452" type="line"/>
      <point x="1081" y="624" type="line"/>
      <point x="1143" y="624" type="line"/>
      <point x="704" y="1517" type="line"/>
    </contour>
  </outline>
</glyph>
<glyph name="underscore" format="1">
  <advance width="1090"/>
  <unicode hex="005F"/>
  <outline>
    <contour>
      <point x="107" y="-314" type="line"/>
      <point x="957" y="-314" type="line"/>
      <point x="957" y="-242" type="line"/>
      <point x="107" y="-242" type="line"/>
    </contour>
  </outline>
</glyph>
<glyph name="grave" format="1">
  <advance width="795"/>
  <unicode hex="0060"/>
  <outline>
    <contour>
      <point x="398" y="1052" type="move" name="_top"/>
    </contour>
    <contour>
      <point x="388" y="1165" type="line"/>
      <point x="437" y="1165" type="line"/>
      <point x="222" y="1515" type="line"/>
      <point x="109" y="1515" type="line"/>
    </contour>
  </outline>
</glyph>
<glyph name="b" format="1">
  <advance width="1242"/>
  <unicode hex="0062"/>
  <outline>
    <contour>
      <point x="683" y="1082" type="move" name="top"/>
    </contour>
    <contour>
      <point x="652" y="-20" type="curve" smooth="yes"/>
      <point x="956" y="-20"/>
      <point x="1122" y="207"/>
      <point x="1122" y="533" type="curve" smooth="yes"/>
      <point x="1122" y="887"/>
      <point x="961" y="1102"/>
      <point x="663" y="1102" type="curve" smooth="yes"/>
      <point x="464" y="1102"/>
      <point x="313" y="975"/>
      <point x="249" y="791" type="curve"/>
      <point x="281" y="795" type="line"/>
      <point x="280" y="1070" type="line"/>
      <point x="280" y="1560" type="line"/>
      <point x="188" y="1540" type="line"/>
      <point x="188" y="0" type="line"/>
      <point x="250" y="0" type="line"/>
      <point x="266" y="291" type="line"/>
      <point x="217" y="291" type="line"/>
      <point x="253" y="158"/>
      <point x="371" y="-20"/>
    </contour>
    <contour>
      <point x="652" y="49" type="curve" smooth="yes"/>
      <point x="433" y="49"/>
      <point x="329" y="167"/>
      <point x="278" y="295" type="curve"/>
      <point x="278" y="587" type="line"/>
      <point x="276" y="851"/>
      <point x="444" y="1033"/>
      <point x="656" y="1033" type="curve" smooth="yes"/>
      <point x="941" y="1033"/>
      <point x="1030" y="804"/>
      <point x="1030" y="536" type="curve" smooth="yes"/>
      <point x="1030" y="267"/>
      <point x="922" y="49"/>
    </contour>
  </outline>
</glyph>
<glyph name="c" format="1">
  <advance width="1087"/>
  <unicode hex="0063"/>
  <outline>
    <contour>
      <point x="612" y="1082" type="move" name="top"/>
    </contour>
    <contour>
      <point x="611" y="0" type="move" name="bot"/>
    </contour>
    <contour>
      <point x="910" y="261" type="line"/>
      <point x="873" y="130"/>
      <point x="740" y="48"/>
      <point x="592" y="48" type="curve" smooth="yes"/>
      <point x="354" y="48"/>
      <point x="212" y="238"/>
      <point x="212" y="541" type="curve" smooth="yes"/>
      <point x="212" y="844"/>
      <point x="354" y="1034"/>
      <point x="592" y="1034" type="curve" smooth="yes"/>
      <point x="741" y="1034"/>
      <point x="874" y="952"/>
      <point x="910" y="820" type="curve"/>
      <point x="926" y="820" type="line"/>
      <point x="977" y="842" type="line"/>
      <point x="938" y="1002"/>
      <point x="779" y="1102"/>
      <point x="592" y="1102" type="curve" smooth="yes"/>
      <point x="298" y="1102"/>
      <point x="120" y="886"/>
      <point x="120" y="541" type="curve" smooth="yes"/>
      <point x="120" y="196"/>
      <point x="298" y="-20"/>
      <point x="592" y="-20" type="curve" smooth="yes"/>
      <point x="779" y="-20"/>
      <point x="938" y="80"/>
      <point x="977" y="240" type="curve"/>
      <point x="929" y="261" type="line"/>
    </contour>
  </outline>
</glyph>
<glyph name="d" format="1">
  <advance width="1236"/>
  <unicode hex="0064"/>
  <outline>
    <contour>
      <point x="1015" y="1082" type="move" name="caron.alt"/>
    </contour>
    <contour>
      <point x="600" y="1082" type="move" name="top"/>
    </contour>
    <contour>
      <point x="1004" y="1251" type="move" name="mid"/>
    </contour>
    <contour>
      <point x="957" y="1540" type="line"/>
      <point x="957" y="1181" type="line"/>
      <point x="969" y="803" type="line"/>
      <point x="993" y="804" type="line"/>
      <point x="965" y="987"/>
      <point x="816" y="1102"/>
      <point x="598" y="1102" type="curve" smooth="yes"/>
      <point x="304" y="1102"/>
      <point x="120" y="888"/>
      <point x="120" y="548" type="curve" smooth="yes"/>
      <point x="120" y="199"/>
      <point x="299" y="-20"/>
      <point x="584" y="-20" type="curve" smooth="yes"/>
      <point x="788" y="-20"/>
      <point x="948" y="84"/>
      <point x="998" y="249" type="curve"/>
      <point x="965" y="255" type="line"/>
      <point x="978" y="0" type="line"/>
      <point x="1049" y="0" type="line"/>
      <point x="1049" y="1560" type="line"/>
    </contour>
    <contour>
      <point x="584" y="49" type="curve" smooth="yes"/>
      <point x="356" y="49"/>
      <point x="212" y="241"/>
      <point x="212" y="547" type="curve" smooth="yes"/>
      <point x="212" y="846"/>
      <point x="362" y="1033"/>
      <point x="598" y="1033" type="curve" smooth="yes"/>
      <point x="759" y="1033"/>
      <point x="892" y="950"/>
      <point x="958" y="778" type="curve"/>
      <point x="958" y="279" type="line"/>
      <point x="904" y="138"/>
      <point x="760" y="49"/>
    </contour>
  </outline>
</glyph>
<glyph name="i" format="1">
  <advance width="482"/>
  <unicode hex="0069"/>
  <outline>
    <component base="dotaccent" xOffset="118"/>
    <component base="dotlessi" xOffset="19"/>
    <contour>
      <point x="257" y="0" type="move" name="ogonek"/>
    </contour>
  </outline>
</glyph>
<glyph name="k" format="1">
  <advance width="1051"/>
  <unicode hex="006B"/>
  <outline>
    <contour>
      <point x="584" y="1082" type="move" name="top"/>
    </contour>
    <contour>
      <point x="584" y="0" type="move" name="bot"/>
    </contour>
    <contour>
      <point x="190" y="0" type="line"/>
      <point x="282" y="0" type="line"/>
      <point x="282" y="427" type="line"/>
      <point x="252" y="369" type="line"/>
      <point x="453" y="548" type="line"/>
      <point x="395" y="548" type="line"/>
      <point x="909" y="0" type="line"/>
      <point x="1014" y="0" type="line"/>
      <point x="1014" y="4" type="line"/>
      <point x="452" y="594" type="line"/>
      <point x="452" y="550" type="line"/>
      <point x="1009" y="1077" type="line"/>
      <point x="1009" y="1082" type="line"/>
      <point x="912" y="1082" type="line"/>
      <point x="244" y="457" type="line"/>
      <point x="275" y="457" type="line"/>
      <point x="282" y="689" type="line"/>
      <point x="282" y="1560" type="line"/>
      <point x="190" y="1540" type="line"/>
    </contour>
  </outline>
</glyph>
<glyph name="o" format="1">
  <advance width="1199"/>
  <unicode hex="006F"/>
  <outline>
    <contour>
      <point x="603" y="1082" type="move" name="top"/>
    </contour>
    <contour>
      <point x="600" y="0" type="move" name="bot"/>
    </contour>
    <contour>
      <point x="654" y="0" type="move" name="ogonek"/>
    </contour>
    <contour>
      <point x="600" y="48" type="curve" smooth="yes"/>
      <point x="366" y="48"/>
      <point x="212" y="256"/>
      <point x="212" y="539" type="curve" smooth="yes"/>
      <point x="212" y="840"/>
      <point x="366" y="1034"/>
      <point x="600" y="1034" type="curve" smooth="yes"/>
      <point x="833" y="1034"/>
      <point x="987" y="839"/>
      <point x="987" y="538" type="curve" smooth="yes"/>
      <point x="987" y="256"/>
      <point x="833" y="48"/>
    </contour>
    <contour>
      <point x="600" y="-20" type="curve" smooth="yes"/>
      <point x="887" y="-20"/>
      <point x="1079" y="216"/>
      <point x="1079" y="541" type="curve" smooth="yes"/>
      <point x="1079" y="881"/>
      <point x="887" y="1102"/>
      <point x="600" y="1102" type="curve" smooth="yes"/>
      <point x="312" y="1102"/>
      <point x="120" y="881"/>
      <point x="120" y="541" type="curve" smooth="yes"/>
      <point x="120" y="216"/>
      <point x="312" y="-20"/>
    </contour>
  </outline>
</glyph>
<glyph name="p" format="1">
  <advance width="1235"/>
  <unicode hex="0070"/>
  <outline>
    <contour>
      <point x="659" y="1052" type="move" name="top"/>
    </contour>
    <contour>
      <point x="659" y="0" type="move" name="bot"/>
    </contour>
    <contour>
      <point x="188" y="-490" type="line"/>
      <point x="280" y="-483" type="line"/>
      <point x="280" y="-101" type="line"/>
      <point x="265" y="308" type="line"/>
      <point x="236" y="303" type="line"/>
      <point x="283" y="91"/>
      <point x="440" y="-20"/>
      <point x="648" y="-20" type="curve" smooth="yes"/>
      <point x="927" y="-20"/>
      <point x="1115" y="184"/>
      <point x="1115" y="537" type="curve" smooth="yes"/>
      <point x="1115" y="911"/>
      <point x="933" y="1102"/>
      <point x="654" y="1102" type="curve" smooth="yes"/>
      <point x="429" y="1102"/>
      <point x="305" y="960"/>
      <point x="256" y="787" type="curve"/>
      <point x="270" y="781" type="line"/>
      <point x="257" y="1082" type="line"/>
      <point x="188" y="1082" type="line"/>
    </contour>
    <contour>
      <point x="648" y="49" type="curve" smooth="yes"/>
      <point x="433" y="49"/>
      <point x="319" y="164"/>
      <point x="275" y="336" type="curve"/>
      <point x="275" y="557" type="line" smooth="yes"/>
      <point x="275" y="815"/>
      <point x="378" y="1033"/>
      <point x="654" y="1033" type="curve" smooth="yes"/>
      <point x="892" y="1033"/>
      <point x="1023" y="866"/>
      <point x="1023" y="537" type="curve" smooth="yes"/>
      <point x="1023" y="229"/>
      <point x="886" y="49"/>
    </contour>
  </outline>
</glyph>
<glyph name="s" format="1">
  <advance width="929"/>
  <unicode hex="0073"/>
  <outline>
    <contour>
      <point x="493" y="1082" type="move" name="top"/>
    </contour>
    <contour>
      <point x="482" y="0" type="move" name="bot"/>
    </contour>
    <contour>
      <point x="182" y="120" type="line"/>
      <point x="156" y="61" type="line"/>
      <point x="263" y="3"/>
      <point x="380" y="-20"/>
      <point x="477" y="-20" type="curve" smooth="yes"/>
      <point x="676" y="-20"/>
      <point x="816" y="73"/>
      <point x="816" y="266" type="curve" smooth="yes"/>
      <point x="816" y="431"/>
      <point x="743" y="510"/>
      <point x="547" y="573" type="curve" smooth="yes"/>
      <point x="388" y="624" type="line" smooth="yes"/>
      <point x="265" y="664"/>
      <point x="209" y="731"/>
      <point x="209" y="835" type="curve" smooth="yes"/>
      <point x="209" y="974"/>
      <point x="348" y="1032"/>
      <point x="492" y="1032" type="curve" smooth="yes"/>
      <point x="577" y="1032"/>
      <point x="663" y="1012"/>
      <point x="724" y="976" type="curve"/>
      <point x="735" y="976" type="line"/>
      <point x="756" y="1037" type="line"/>
      <point x="699" y="1072"/>
      <point x="591" y="1102"/>
      <point x="489" y="1102" type="curve" smooth="yes"/>
      <point x="278" y="1102"/>
      <point x="128" y="1009"/>
      <point x="128" y="835" type="curve" smooth="yes"/>
      <point x="128" y="694"/>
      <point x="206" y="610"/>
      <point x="373" y="557" type="curve" smooth="yes"/>
      <point x="529" y="508" type="line" smooth="yes"/>
      <point x="686" y="459"/>
      <point x="739" y="398"/>
      <point x="739" y="264" type="curve" smooth="yes"/>
      <point x="739" y="122"/>
      <point x="663" y="52"/>
      <point x="477" y="52" type="curve" smooth="yes"/>
      <point x="378" y="52"/>
      <point x="278" y="74"/>
      <point x="197" y="120" type="curve"/>
    </contour>
  </outline>
</glyph>
<glyph name="t" format="1">
  <advance width="754"/>
  <unicode hex="0074"/>
  <outline>
    <contour>
      <point x="277" y="1252" type="move" name="top"/>
    </contour>
    <contour>
      <point x="428" y="0" type="move" name="bot"/>
    </contour>
    <contour>
      <point x="334" y="585" type="move" name="mid"/>
    </contour>
    <contour>
      <point x="490" y="-10" type="curve" smooth="yes"/>
      <point x="589" y="-10"/>
      <point x="647" y="2"/>
      <point x="647" y="2" type="curve"/>
      <point x="647" y="59" type="line"/>
      <point x="647" y="59"/>
      <point x="578" y="50"/>
      <point x="503" y="50" type="curve" smooth="yes"/>
      <point x="398" y="50"/>
      <point x="328" y="92"/>
      <point x="328" y="262" type="curve" smooth="yes"/>
      <point x="328" y="1054" type="line"/>
      <point x="298" y="1030" type="line"/>
      <point x="659" y="1030" type="line"/>
      <point x="659" y="1082" type="line"/>
      <point x="299" y="1082" type="line"/>
      <point x="328" y="1056" type="line"/>
      <point x="328" y="1360" type="line"/>
      <point x="252" y="1351" type="line"/>
      <point x="236" y="1069" type="line"/>
      <point x="256" y="1085" type="line"/>
      <point x="89" y="1072" type="line"/>
      <point x="92" y="1029" type="line"/>
      <point x="266" y="1029" type="line"/>
      <point x="236" y="1055" type="line"/>
      <point x="236" y="253" type="line" smooth="yes"/>
      <point x="236" y="61"/>
      <point x="354" y="-10"/>
    </contour>
  </outline>
</glyph>
<glyph name="u" format="1">
  <advance width="1166"/>
  <unicode hex="0075"/>
  <outline>
    <contour>
      <point x="583" y="1082" type="move" name="top"/>
    </contour>
    <contour>
      <point x="583" y="0" type="move" name="bot"/>
    </contour>
    <contour>
      <point x="938" y="0" type="move" name="ogonek"/>
    </contour>
    <contour>
      <point x="548" y="-20" type="curve" smooth="yes"/>
      <point x="744" y="-20"/>
      <point x="840" y="39"/>
      <point x="918" y="206" type="curve"/>
      <point x="885" y="206" type="line"/>
      <point x="902" y="0" type="line"/>
      <point x="980" y="0" type="line"/>
      <point x="980" y="1082" type="line"/>
      <point x="888" y="1082" type="line"/>
      <point x="888" y="213" type="line"/>
      <point x="901" y="260" type="line"/>
      <point x="844" y="143"/>
      <point x="748" y="49"/>
      <point x="548" y="49" type="curve" smooth="yes"/>
      <point x="351" y="49"/>
      <point x="269" y="176"/>
      <point x="269" y="370" type="curve" smooth="yes"/>
      <point x="269" y="1082" type="line"/>
      <point x="177" y="1082" type="line"/>
      <point x="177" y="422" type="line" smooth="yes"/>
      <point x="177" y="118"/>
      <point x="309" y="-20"/>
    </contour>
  </outline>
</glyph>
<glyph name="w" format="1">
  <advance width="1508"/>
  <unicode hex="0077"/>
  <outline>
    <contour>
      <point x="754" y="1082" type="move" name="top"/>
    </contour>
    <contour>
      <point x="754" y="0" type="move" name="bot"/>
    </contour>
    <contour>
      <point x="1365" y="1082" type="line"/>
      <point x="1107" y="29" type="line"/>
      <point x="1141" y="29" type="line"/>
      <point x="801" y="1053" type="line"/>
      <point x="707" y="1053" type="line"/>
      <point x="360" y="29" type="line"/>
      <point x="394" y="29" type="line"/>
      <point x="147" y="1082" type="line"/>
      <point x="66" y="1082" type="line"/>
      <point x="343" y="0" type="line"/>
      <point x="414" y="0" type="line"/>
      <point x="766" y="1031" type="line"/>
      <point x="743" y="1031" type="line"/>
      <point x="1090" y="0" type="line"/>
      <point x="1157" y="0" type="line"/>
      <point x="1442" y="1082" type="line"/>
    </contour>
  </outline>
</glyph>
<glyph name="braceleft" format="1">
  <advance width="826"/>
  <unicode hex="007B"/>
  <outline>
    <contour>
      <point x="618" y="-286" type="curve"/>
      <point x="618" y="-231" type="line"/>
      <point x="466" y="-229"/>
      <point x="406" y="-141"/>
      <point x="406" y="58" type="curve" smooth="yes"/>
      <point x="406" y="316" type="line" smooth="yes"/>
      <point x="406" y="491"/>
      <point x="370" y="569"/>
      <point x="225" y="609" type="curve"/>
      <point x="365" y="660"/>
      <point x="406" y="750"/>
      <point x="406" y="916" type="curve" smooth="yes"/>
      <point x="406" y="1177" type="line" smooth="yes"/>
      <point x="406" y="1384"/>
      <point x="469" y="1461"/>
      <point x="618" y="1463" type="curve"/>
      <point x="618" y="1522" type="line"/>
      <point x="443" y="1520"/>
      <point x="355" y="1380"/>
      <point x="355" y="1205" type="curve" smooth="yes"/>
      <point x="355" y="1009" type="line" smooth="yes"/>
      <point x="355" y="823"/>
      <point x="339" y="642"/>
      <point x="140" y="643" type="curve"/>
      <point x="140" y="587" type="line"/>
      <point x="347" y="583"/>
      <point x="355" y="411"/>
      <point x="355" y="220" type="curve" smooth="yes"/>
      <point x="355" y="86" type="line" smooth="yes"/>
      <point x="355" y="-128"/>
      <point x="409" y="-286"/>
    </contour>
  </outline>
</glyph>
<glyph name="bar" format="1">
  <advance width="146"/>
  <unicode hex="007C"/>
  <outline>
    <contour>
      <point x="31" y="1565" type="line"/>
      <point x="31" y="-436" type="line"/>
      <point x="92" y="-436" type="line"/>
      <point x="92" y="1565" type="line"/>
    </contour>
  </outline>
</glyph>
<glyph name="braceright" format="1">
  <advance width="826"/>
  <unicode hex="007D"/>
  <outline>
    <contour>
      <point x="133" y="-286" type="line"/>
      <point x="307" y="-285"/>
      <point x="396" y="-145"/>
      <point x="396" y="30" type="curve" smooth="yes"/>
      <point x="396" y="230" type="line" smooth="yes"/>
      <point x="396" y="415"/>
      <point x="411" y="595"/>
      <point x="611" y="595" type="curve"/>
      <point x="611" y="650" type="line"/>
      <point x="405" y="653"/>
      <point x="396" y="826"/>
      <point x="396" y="1017" type="curve" smooth="yes"/>
      <point x="396" y="1149" type="line" smooth="yes"/>
      <point x="396" y="1362"/>
      <point x="342" y="1522"/>
      <point x="133" y="1522" type="curve"/>
      <point x="133" y="1468" type="line"/>
      <point x="285" y="1466"/>
      <point x="345" y="1376"/>
      <point x="345" y="1178" type="curve" smooth="yes"/>
      <point x="345" y="919" type="line" smooth="yes"/>
      <point x="345" y="816"/>
      <point x="382" y="667"/>
      <point x="526" y="629" type="curve"/>
      <point x="371" y="553"/>
      <point x="345" y="437"/>
      <point x="345" y="319" type="curve" smooth="yes"/>
      <point x="345" y="59" type="line" smooth="yes"/>
      <point x="345" y="-149"/>
      <point x="282" y="-226"/>
      <point x="133" y="-228" type="curve"/>
    </contour>
  </outline>
</glyph>
<glyph name="asciitilde" format="1">
  <advance width="1218"/>
  <unicode hex="007E"/>
  <outline>
    <contour>
      <point x="101" y="517" type="line"/>
      <point x="153" y="615"/>
      <point x="248" y="692"/>
      <point x="341" y="692" type="curve" smooth="yes"/>
      <point x="413" y="692"/>
      <point x="503" y="650"/>
      <point x="633" y="594" type="curve"/>
      <point x="709" y="560"/>
      <point x="784" y="533"/>
      <point x="837" y="533" type="curve" smooth="yes"/>
      <point x="948" y="533"/>
      <point x="995" y="597"/>
      <point x="1042" y="737" type="curve"/>
      <point x="1019" y="785" type="line"/>
      <point x="1010" y="704"/>
      <point x="919" y="607"/>
      <point x="829" y="607" type="curve" smooth="yes"/>
      <point x="764" y="607"/>
      <point x="672" y="658"/>
      <point x="568" y="701" type="curve" smooth="yes"/>
      <point x="455" y="751"/>
      <point x="417" y="770"/>
      <point x="340" y="770" type="curve" smooth="yes"/>
      <point x="225" y="770"/>
      <point x="135" y="688"/>
      <point x="93" y="575" type="curve"/>
    </contour>
  </outline>
</glyph>
<glyph name="sterling" format="1">
  <advance width="1238"/>
  <unicode hex="00A3"/>
  <outline>
    <contour>
      <point x="1026" y="1301" type="line"/>
      <point x="1061" y="1355" type="line"/>
      <point x="984" y="1421"/>
      <point x="879" y="1475"/>
      <point x="738" y="1475" type="curve" smooth="yes"/>
      <point x="353" y="1475"/>
      <point x="342" y="1156"/>
      <point x="342" y="863" type="curve" smooth="yes"/>
      <point x="342" y="752" type="line"/>
      <point x="153" y="752" type="line"/>
      <point x="153" y="694" type="line"/>
      <point x="342" y="694" type="line"/>
      <point x="342" y="61" type="line"/>
      <point x="148" y="49" type="line"/>
      <point x="160" y="0" type="line"/>
      <point x="1054" y="0" type="line"/>
      <point x="1059" y="63" type="line"/>
      <point x="413" y="63" type="line"/>
      <point x="413" y="694" type="line"/>
      <point x="847" y="694" type="line"/>
      <point x="847" y="752" type="line"/>
      <point x="413" y="752" type="line"/>
      <point x="413" y="937" type="line" smooth="yes"/>
      <point x="413" y="1215"/>
      <point x="479" y="1409"/>
      <point x="730" y="1409" type="curve" smooth="yes"/>
      <point x="837" y="1409"/>
      <point x="932" y="1373"/>
      <point x="1020" y="1301" type="curve"/>
    </contour>
  </outline>
</glyph>
<glyph name="yen" format="1">
  <advance width="1219"/>
  <unicode hex="00A5"/>
  <outline>
    <component base="Y"/>
    <contour>
      <point x="252" y="328" type="line"/>
      <point x="984" y="328" type="line"/>
      <point x="984" y="389" type="line"/>
      <point x="252" y="389" type="line"/>
    </contour>
    <contour>
      <point x="252" y="628" type="line"/>
      <point x="984" y="628" type="line"/>
      <point x="984" y="689" type="line"/>
      <point x="252" y="689" type="line"/>
    </contour>
  </outline>
</glyph>
<glyph name="section" format="1">
  <advance width="1039"/>
  <unicode hex="00A7"/>
  <outline>
    <contour>
      <point x="490" y="-88" type="curve" smooth="yes"/>
      <point x="692" y="-88"/>
      <point x="874" y="-1"/>
      <point x="874" y="201" type="curve" smooth="yes"/>
      <point x="874" y="310"/>
      <point x="807" y="405"/>
      <point x="694" y="456" type="curve"/>
      <point x="806" y="503"/>
      <point x="882" y="560"/>
      <point x="882" y="676" type="curve" smooth="yes"/>
      <point x="882" y="801"/>
      <point x="780" y="847"/>
      <point x="569" y="931" type="curve" smooth="yes"/>
      <point x="342" y="1021"/>
      <point x="252" y="1036"/>
      <point x="252" y="1205" type="curve" smooth="yes"/>
      <point x="252" y="1354"/>
      <point x="399" y="1423"/>
      <point x="563" y="1423" type="curve" smooth="yes"/>
      <point x="652" y="1423"/>
      <point x="745" y="1403"/>
      <point x="824" y="1365" type="curve"/>
      <point x="843" y="1417" type="line"/>
      <point x="756" y="1454"/>
      <point x="654" y="1475"/>
      <point x="558" y="1475" type="curve" smooth="yes"/>
      <point x="361" y="1475"/>
      <point x="184" y="1392"/>
      <point x="184" y="1204" type="curve" smooth="yes"/>
      <point x="184" y="1088"/>
      <point x="240" y="1015"/>
      <point x="358" y="957" type="curve"/>
      <point x="263" y="908"/>
      <point x="187" y="844"/>
      <point x="187" y="728" type="curve" smooth="yes"/>
      <point x="187" y="568"/>
      <point x="290" y="547"/>
      <point x="506" y="470" type="curve" smooth="yes"/>
      <point x="761" y="379"/>
      <point x="806" y="312"/>
      <point x="806" y="201" type="curve" smooth="yes"/>
      <point x="806" y="32"/>
      <point x="657" y="-32"/>
      <point x="494" y="-32" type="curve" smooth="yes"/>
      <point x="390" y="-32"/>
      <point x="282" y="-6"/>
      <point x="202" y="35" type="curve"/>
      <point x="179" y="-22" type="line"/>
      <point x="272" y="-65"/>
      <point x="384" y="-88"/>
    </contour>
    <contour>
      <point x="648" y="477" type="curve"/>
      <point x="527" y="521" type="line" smooth="yes"/>
      <point x="302" y="603"/>
      <point x="251" y="618"/>
      <point x="251" y="732" type="curve" smooth="yes"/>
      <point x="251" y="857"/>
      <point x="349" y="909"/>
      <point x="414" y="933" type="curve"/>
      <point x="546" y="882" type="line"/>
      <point x="682" y="828"/>
      <point x="822" y="779"/>
      <point x="822" y="678" type="curve" smooth="yes"/>
      <point x="822" y="536"/>
      <point x="712" y="511"/>
    </contour>
  </outline>
</glyph>
<glyph name="guillemotleft" format="1">
  <advance width="1011"/>
  <unicode hex="00AB"/>
  <outline>
    <contour>
      <point x="413" y="163" type="line"/>
      <point x="465" y="176" type="line"/>
      <point x="209" y="540" type="line"/>
      <point x="473" y="898" type="line"/>
      <point x="417" y="911" type="line"/>
      <point x="144" y="537" type="line"/>
    </contour>
    <contour>
      <point x="725" y="163" type="line"/>
      <point x="777" y="176" type="line"/>
      <point x="520" y="540" type="line"/>
      <point x="784" y="898" type="line"/>
      <point x="728" y="911" type="line"/>
      <point x="456" y="537" type="line"/>
    </contour>
  </outline>
</glyph>
<glyph name="uni00AD" format="1">
  <advance width="1175"/>
  <unicode hex="00AD"/>
  <outline>
    <contour>
      <point x="149" y="90" type="line"/>
      <point x="1011" y="90" type="line"/>
      <point x="1011" y="165" type="line"/>
      <point x="149" y="165" type="line"/>
    </contour>
  </outline>
</glyph>
<glyph name="registered" format="1">
  <advance width="1975"/>
  <unicode hex="00AE"/>
  <outline>
    <contour>
      <point x="677" y="320" type="line"/>
      <point x="762" y="320" type="line"/>
      <point x="762" y="802" type="line"/>
      <point x="1053" y="802" type="line"/>
      <point x="1047" y="809"/>
      <point x="1279" y="320"/>
      <point x="1279" y="320" type="curve"/>
      <point x="1370" y="320" type="line"/>
      <point x="1370" y="320"/>
      <point x="1129" y="829"/>
      <point x="1140" y="814" type="curve"/>
      <point x="1270" y="812"/>
      <point x="1343" y="912"/>
      <point x="1343" y="1054" type="curve" smooth="yes"/>
      <point x="1343" y="1212"/>
      <point x="1296" y="1294"/>
      <point x="1022" y="1294" type="curve" smooth="yes"/>
      <point x="677" y="1294" type="line"/>
    </contour>
    <contour>
      <point x="764" y="876" type="line"/>
      <point x="764" y="1221" type="line"/>
      <point x="1023" y="1221" type="line" smooth="yes"/>
      <point x="1206" y="1221"/>
      <point x="1266" y="1191"/>
      <point x="1266" y="1049" type="curve" smooth="yes"/>
      <point x="1266" y="941"/>
      <point x="1240" y="876"/>
      <point x="1082" y="876" type="curve" smooth="yes"/>
    </contour>
    <contour>
      <point x="985" y="14" type="curve" smooth="yes"/>
      <point x="646" y="14"/>
      <point x="260" y="233"/>
      <point x="260" y="764" type="curve" smooth="yes"/>
      <point x="260" y="1296"/>
      <point x="646" y="1516"/>
      <point x="985" y="1516" type="curve" smooth="yes"/>
      <point x="1324" y="1516"/>
      <point x="1714" y="1295"/>
      <point x="1714" y="764" type="curve" smooth="yes"/>
      <point x="1714" y="234"/>
      <point x="1324" y="14"/>
    </contour>
    <contour>
      <point x="985" y="-47" type="curve" smooth="yes"/>
      <point x="1369" y="-47"/>
      <point x="1798" y="194"/>
      <point x="1798" y="764" type="curve" smooth="yes"/>
      <point x="1798" y="1335"/>
      <point x="1369" y="1577"/>
      <point x="985" y="1577" type="curve" smooth="yes"/>
      <point x="601" y="1577"/>
      <point x="176" y="1335"/>
      <point x="176" y="764" type="curve" smooth="yes"/>
      <point x="176" y="194"/>
      <point x="600" y="-47"/>
    </contour>
  </outline>
</glyph>
<glyph name="macron" format="1">
  <advance width="1238"/>
  <unicode hex="00AF"/>
  <outline>
    <contour>
      <point x="619" y="1052" type="move" name="_top"/>
    </contour>
    <contour>
      <point x="596" y="1410" type="move" name="_mid"/>
    </contour>
    <contour>
      <point x="361" y="1382" type="line"/>
      <point x="827" y="1382" type="line"/>
      <point x="827" y="1435" type="line"/>
      <point x="361" y="1435" type="line"/>
    </contour>
  </outline>
</glyph>
<glyph name="degree" format="1">
  <advance width="852"/>
  <unicode hex="00B0"/>
  <outline>
    <contour>
      <point x="426" y="989" type="curve" smooth="yes"/>
      <point x="296" y="989"/>
      <point x="200" y="1083"/>
      <point x="200" y="1212" type="curve" smooth="yes"/>
      <point x="200" y="1341"/>
      <point x="299" y="1436"/>
      <point x="425" y="1436" type="curve" smooth="yes"/>
      <point x="556" y="1436"/>
      <point x="654" y="1341"/>
      <point x="654" y="1212" type="curve" smooth="yes"/>
      <point x="654" y="1086"/>
      <point x="556" y="989"/>
    </contour>
    <contour>
      <point x="424" y="927" type="curve" smooth="yes"/>
      <point x="565" y="927"/>
      <point x="723" y="1038"/>
      <point x="723" y="1212" type="curve" smooth="yes"/>
      <point x="723" y="1391"/>
      <point x="563" y="1498"/>
      <point x="424" y="1498" type="curve" smooth="yes"/>
      <point x="292" y="1498"/>
      <point x="130" y="1391"/>
      <point x="130" y="1212" type="curve" smooth="yes"/>
      <point x="130" y="1027"/>
      <point x="295" y="927"/>
    </contour>
  </outline>
</glyph>
<glyph name="ordmasculine" format="1">
  <advance width="844"/>
  <unicode hex="00BA"/>
  <outline>
    <contour>
      <point x="90" y="1174" type="curve" smooth="yes"/>
      <point x="90" y="962"/>
      <point x="214" y="804"/>
      <point x="422" y="804" type="curve" smooth="yes"/>
      <point x="618" y="804"/>
      <point x="754" y="965"/>
      <point x="754" y="1174" type="curve" smooth="yes"/>
      <point x="754" y="1393"/>
      <point x="636" y="1549"/>
      <point x="422" y="1549" type="curve" smooth="yes"/>
      <point x="214" y="1549"/>
      <point x="90" y="1390"/>
    </contour>
    <contour>
      <point x="663" y="1172" type="curve" smooth="yes"/>
      <point x="663" y="1013"/>
      <point x="585" y="874"/>
      <point x="422" y="874" type="curve" smooth="yes"/>
      <point x="267" y="874"/>
      <point x="189" y="1015"/>
      <point x="189" y="1175" type="curve" smooth="yes"/>
      <point x="189" y="1338"/>
      <point x="268" y="1478"/>
      <point x="422" y="1478" type="curve" smooth="yes"/>
      <point x="581" y="1478"/>
      <point x="663" y="1336"/>
    </contour>
  </outline>
</glyph>
<glyph name="multiply" format="1">
  <advance width="637"/>
  <unicode hex="00D7"/>
  <outline>
    <contour>
      <point x="31" y="855" type="line"/>
      <point x="286" y="579" type="line"/>
      <point x="15" y="286" type="line"/>
      <point x="58" y="249" type="line"/>
      <point x="324" y="535" type="line"/>
      <point x="586" y="250" type="line"/>
      <point x="623" y="290" type="line"/>
      <point x="623" y="290"/>
      <point x="350" y="592"/>
      <point x="363" y="578" type="curve"/>
      <point x="618" y="849" type="line"/>
      <point x="571" y="893" type="line"/>
      <point x="324" y="623" type="line"/>
      <point x="75" y="900" type="line"/>
    </contour>
  </outline>
</glyph>
<glyph name="Oslash" format="1">
  <advance width="1682"/>
  <unicode hex="00D8"/>
  <outline>
    <contour>
      <point x="828" y="1456" type="move" name="top"/>
    </contour>
    <contour>
      <point x="476" y="-217" type="line"/>
      <point x="570" y="17" type="line"/>
      <point x="645" y="-6"/>
      <point x="730" y="-19"/>
      <point x="827" y="-19" type="curve" smooth="yes"/>
      <point x="1289" y="-19"/>
      <point x="1500" y="292"/>
      <point x="1500" y="710" type="curve" smooth="yes"/>
      <point x="1500" y="1040"/>
      <point x="1374" y="1300"/>
      <point x="1129" y="1413" type="curve"/>
      <point x="1224" y="1649" type="line"/>
      <point x="1169" y="1669" type="line"/>
      <point x="1075" y="1435" type="line"/>
      <point x="1002" y="1460"/>
      <point x="920" y="1474"/>
      <point x="828" y="1474" type="curve" smooth="yes"/>
      <point x="370" y="1474"/>
      <point x="147" y="1162"/>
      <point x="147" y="714" type="curve" smooth="yes"/>
      <point x="147" y="393"/>
      <point x="263" y="143"/>
      <point x="517" y="37" type="curve"/>
      <point x="424" y="-197" type="line"/>
    </contour>
    <contour>
      <point x="543" y="101" type="line"/>
      <point x="323" y="200"/>
      <point x="233" y="427"/>
      <point x="233" y="714" type="curve" smooth="yes"/>
      <point x="233" y="1125"/>
      <point x="414" y="1407"/>
      <point x="827" y="1407" type="curve" smooth="yes"/>
      <point x="911" y="1407"/>
      <point x="986" y="1395"/>
      <point x="1051" y="1373" type="curve"/>
    </contour>
    <contour>
      <point x="824" y="48" type="curve" smooth="yes"/>
      <point x="737" y="48"/>
      <point x="661" y="59"/>
      <point x="595" y="81" type="curve"/>
      <point x="1104" y="1351" type="line"/>
      <point x="1320" y="1248"/>
      <point x="1414" y="1014"/>
      <point x="1414" y="714" type="curve" smooth="yes"/>
      <point x="1414" y="327"/>
      <point x="1253" y="48"/>
    </contour>
  </outline>
</glyph>
<glyph name="ae" format="1">
  <advance width="1819"/>
  <unicode hex="00E6"/>
  <outline>
    <contour>
      <point x="934" y="1052" type="move" name="top"/>
    </contour>
    <contour>
      <point x="1312" y="-19" type="curve" smooth="yes"/>
      <point x="1462" y="-19"/>
      <point x="1564" y="18"/>
      <point x="1668" y="71" type="curve"/>
      <point x="1638" y="132" type="line"/>
      <point x="1501" y="67"/>
      <point x="1429" y="55"/>
      <point x="1328" y="55" type="curve" smooth="yes"/>
      <point x="1107" y="54"/>
      <point x="937" y="196"/>
      <point x="927" y="539" type="curve"/>
      <point x="1502" y="539"/>
      <point x="1670" y="577"/>
      <point x="1670" y="819" type="curve" smooth="yes"/>
      <point x="1670" y="962"/>
      <point x="1539" y="1101"/>
      <point x="1303" y="1101" type="curve" smooth="yes"/>
      <point x="1132" y="1101"/>
      <point x="939" y="999"/>
      <point x="911" y="796" type="curve"/>
      <point x="907" y="1020"/>
      <point x="748" y="1102"/>
      <point x="543" y="1102" type="curve" smooth="yes"/>
      <point x="431" y="1102"/>
      <point x="282" y="1064"/>
      <point x="198" y="1018" type="curve"/>
      <point x="231" y="948" type="line"/>
      <point x="333" y="1005"/>
      <point x="469" y="1031"/>
      <point x="576" y="1031" type="curve" smooth="yes"/>
      <point x="769" y="1032"/>
      <point x="842" y="927"/>
      <point x="842" y="755" type="curve" smooth="yes"/>
      <point x="842" y="606" type="line"/>
      <point x="634" y="606" type="line" smooth="yes"/>
      <point x="273" y="606"/>
      <point x="135" y="497"/>
      <point x="135" y="293" type="curve" smooth="yes"/>
      <point x="135" y="60"/>
      <point x="290" y="-13"/>
      <point x="457" y="-13" type="curve" smooth="yes"/>
      <point x="627" y="-13"/>
      <point x="839" y="75"/>
      <point x="926" y="189" type="curve"/>
      <point x="1005" y="56"/>
      <point x="1142" y="-19"/>
    </contour>
    <contour>
      <point x="469" y="70" type="curve" smooth="yes"/>
      <point x="332" y="70"/>
      <point x="230" y="140"/>
      <point x="230" y="311" type="curve" smooth="yes"/>
      <point x="230" y="467"/>
      <point x="315" y="542"/>
      <point x="665" y="542" type="curve" smooth="yes"/>
      <point x="841" y="542" type="line"/>
      <point x="840" y="457"/>
      <point x="853" y="347"/>
      <point x="889" y="261" type="curve"/>
      <point x="797" y="149"/>
      <point x="612" y="70"/>
    </contour>
    <contour>
      <point x="932" y="600" type="curve"/>
      <point x="954" y="822"/>
      <point x="1074" y="1025"/>
      <point x="1304" y="1025" type="curve" smooth="yes"/>
      <point x="1499" y="1025"/>
      <point x="1594" y="908"/>
      <point x="1594" y="804" type="curve" smooth="yes"/>
      <point x="1594" y="636"/>
      <point x="1382" y="600"/>
    </contour>
  </outline>
</glyph>
<glyph name="eth" format="1">
  <advance width="1365"/>
  <unicode hex="00F0"/>
  <outline>
    <contour>
      <point x="319" y="1629" type="line"/>
      <point x="550" y="1424" type="line"/>
      <point x="286" y="1324" type="line"/>
      <point x="321" y="1267" type="line"/>
      <point x="591" y="1369" type="line"/>
      <point x="880" y="1094"/>
      <point x="991" y="912"/>
      <point x="1044" y="770" type="curve"/>
      <point x="996" y="830"/>
      <point x="892" y="975"/>
      <point x="667" y="975" type="curve" smooth="yes"/>
      <point x="388" y="975"/>
      <point x="180" y="776"/>
      <point x="180" y="484" type="curve" smooth="yes"/>
      <point x="180" y="234"/>
      <point x="323" y="-31"/>
      <point x="662" y="-31" type="curve" smooth="yes"/>
      <point x="1010" y="-31"/>
      <point x="1147" y="220"/>
      <point x="1147" y="495" type="curve" smooth="yes"/>
      <point x="1147" y="626"/>
      <point x="1118" y="774"/>
      <point x="1073" y="870" type="curve" smooth="yes"/>
      <point x="1014" y="998"/>
      <point x="917" y="1138"/>
      <point x="663" y="1399" type="curve"/>
      <point x="958" y="1505" type="line"/>
      <point x="921" y="1560" type="line"/>
      <point x="611" y="1444" type="line"/>
      <point x="421" y="1629" type="line"/>
    </contour>
    <contour>
      <point x="1060" y="500" type="curve" smooth="yes"/>
      <point x="1060" y="220"/>
      <point x="932" y="33"/>
      <point x="667" y="33" type="curve" smooth="yes"/>
      <point x="395" y="33"/>
      <point x="277" y="268"/>
      <point x="277" y="481" type="curve" smooth="yes"/>
      <point x="277" y="713"/>
      <point x="420" y="901"/>
      <point x="660" y="901" type="curve" smooth="yes"/>
      <point x="921" y="901"/>
      <point x="1060" y="691"/>
    </contour>
  </outline>
</glyph>
<glyph name="thorn" format="1">
  <advance width="1249"/>
  <unicode hex="00FE"/>
  <outline>
    <component base="b"/>
    <contour>
      <point x="188" y="290" type="line"/>
      <point x="188" y="-513" type="line"/>
      <point x="279" y="-513" type="line"/>
      <point x="279" y="290" type="line"/>
    </contour>
  </outline>
</glyph>
<glyph name="Hbar" format="1">
  <advance width="1487"/>
  <unicode hex="0126"/>
  <outline>
    <component base="H"/>
    <contour>
      <point x="108" y="1139" type="line"/>
      <point x="108" y="1082" type="line"/>
      <point x="1375" y="1082" type="line"/>
      <point x="1375" y="1139" type="line"/>
    </contour>
  </outline>
</glyph>
<glyph name="dotlessj" format="1">
  <advance width="488"/>
  <unicode hex="0237"/>
  <outline>
    <contour>
      <point x="267" y="1082" type="move" name="top"/>
    </contour>
    <contour>
      <point x="220" y="1082" type="line"/>
      <point x="220" y="58" type="line" smooth="yes"/>
      <point x="220" y="-150"/>
      <point x="218" y="-221"/>
      <point x="64" y="-221" type="curve" smooth="yes"/>
      <point x="29" y="-221" type="line"/>
      <point x="23" y="-308" type="line"/>
      <point x="78" y="-308" type="line" smooth="yes"/>
      <point x="217" y="-308"/>
      <point x="312" y="-244"/>
      <point x="312" y="-20" type="curve" smooth="yes"/>
      <point x="312" y="1082" type="line"/>
    </contour>
  </outline>
</glyph>
<glyph name="caron" format="1">
  <advance width="844"/>
  <unicode hex="02C7"/>
  <outline>
    <contour>
      <point x="422" y="1082" type="move" name="_top"/>
    </contour>
    <contour>
      <point x="365" y="1202" type="line"/>
      <point x="458" y="1202" type="line"/>
      <point x="640" y="1505" type="line"/>
      <point x="586" y="1505" type="line"/>
      <point x="412" y="1258" type="line"/>
      <point x="237" y="1505" type="line"/>
      <point x="182" y="1505" type="line"/>
    </contour>
  </outline>
</glyph>
<glyph name="dotaccent" format="1">
  <advance width="288"/>
  <unicode hex="02D9"/>
  <outline>
    <contour>
      <point x="139" y="1082" type="move" name="_top"/>
    </contour>
    <contour>
      <point x="209" y="1405" type="curve" smooth="yes"/>
      <point x="209" y="1452"/>
      <point x="188" y="1476"/>
      <point x="140" y="1476" type="curve" smooth="yes"/>
      <point x="91" y="1476"/>
      <point x="70" y="1452"/>
      <point x="70" y="1405" type="curve" smooth="yes"/>
      <point x="70" y="1358"/>
      <point x="91" y="1334"/>
      <point x="140" y="1334" type="curve" smooth="yes"/>
      <point x="188" y="1334"/>
      <point x="209" y="1358"/>
    </contour>
  </outline>
</glyph>
<glyph name="commaaccent" format="1">
  <advance width="600"/>
  <unicode hex="0326"/>
  <outline>
    <contour>
      <point x="313" y="0" type="move" name="_bot"/>
    </contour>
    <contour>
      <point x="255" y="-496" type="curve"/>
      <point x="289" y="-496" type="line"/>
      <point x="289" y="-496"/>
      <point x="351" y="-240"/>
      <point x="348" y="-164" type="curve"/>
      <point x="268" y="-164" type="line"/>
      <point x="268" y="-289"/>
      <point x="255" y="-496"/>
    </contour>
  </outline>
</glyph>
<glyph name="pi" format="1">
  <advance width="1287"/>
  <unicode hex="03C0"/>
  <outline>
    <contour>
      <point x="1039" y="-7" type="curve" smooth="yes"/>
      <point x="1090" y="-7"/>
      <point x="1143" y="12"/>
      <point x="1187" y="44" type="curve"/>
      <point x="1187" y="93" type="line"/>
      <point x="1160" y="82"/>
      <point x="1120" y="72"/>
      <point x="1079" y="72" type="curve" smooth="yes"/>
      <point x="968" y="72"/>
      <point x="924" y="153"/>
      <point x="924" y="344" type="curve" smooth="yes"/>
      <point x="924" y="489"/>
      <point x="949" y="728"/>
      <point x="991" y="1012" type="curve"/>
      <point x="1231" y="1012" type="line"/>
      <point x="1231" y="1082" type="line"/>
      <point x="404" y="1082" type="line" smooth="yes"/>
      <point x="188" y="1082"/>
      <point x="135" y="1004"/>
      <point x="135" y="786" type="curve"/>
      <point x="188" y="786" type="line"/>
      <point x="200" y="953"/>
      <point x="240" y="1012"/>
      <point x="342" y="1012" type="curve" smooth="yes"/>
      <point x="464" y="1012" type="line"/>
      <point x="365" y="341" type="line" smooth="yes"/>
      <point x="333" y="123"/>
      <point x="191" y="62"/>
      <point x="103" y="62" type="curve"/>
      <point x="103" y="4" type="line"/>
      <point x="371" y="4"/>
      <point x="409" y="115"/>
      <point x="437" y="335" type="curve" smooth="yes"/>
      <point x="523" y="1012" type="line"/>
      <point x="931" y="1012" type="line"/>
      <point x="882" y="689"/>
      <point x="851" y="430"/>
      <point x="851" y="274" type="curve" smooth="yes"/>
      <point x="851" y="72"/>
      <point x="903" y="-7"/>
    </contour>
  </outline>
</glyph>
<glyph name="emdash" format="1">
  <advance width="2687"/>
  <unicode hex="2014"/>
  <outline>
    <contour>
      <point x="212" y="579" type="line"/>
      <point x="2432" y="579" type="line"/>
      <point x="2432" y="670" type="line"/>
      <point x="212" y="670" type="line"/>
    </contour>
  </outline>
</glyph>
<glyph name="quoteleft" format="1">
  <advance width="520"/>
  <unicode hex="2018"/>
  <outline>
    <contour>
      <point x="296" y="1006" type="line"/>
      <point x="351" y="1455" type="line"/>
      <point x="315" y="1455" type="line"/>
      <point x="199" y="1006" type="line"/>
    </contour>
  </outline>
</glyph>
<glyph name="quoteright" format="1">
  <advance width="509"/>
  <unicode hex="2019"/>
  <outline>
    <contour>
      <point x="187" y="1006" type="line"/>
      <point x="227" y="1006" type="line"/>
      <point x="328" y="1455" type="line"/>
      <point x="261" y="1455" type="line"/>
    </contour>
  </outline>
</glyph>
<glyph name="quotedblright" format="1">
  <advance width="569"/>
  <unicode hex="201D"/>
  <outline>
    <contour>
      <point x="77" y="1164" type="line"/>
      <point x="117" y="1164" type="line"/>
      <point x="232" y="1601" type="line"/>
      <point x="149" y="1601" type="line"/>
    </contour>
    <contour>
      <point x="340" y="1170" type="line"/>
      <point x="390" y="1170" type="line"/>
      <point x="497" y="1601" type="line"/>
      <point x="417" y="1601" type="line"/>
    </contour>
  </outline>
</glyph>
<glyph name="dagger" format="1">
  <advance width="950"/>
  <unicode hex="2020"/>
  <outline>
    <contour>
      <point x="435" y="1453" type="line"/>
      <point x="435" y="1045" type="line"/>
      <point x="153" y="1045" type="line"/>
      <point x="153" y="1011" type="line"/>
      <point x="435" y="1011" type="line"/>
      <point x="435" y="126" type="line"/>
      <point x="484" y="126" type="line"/>
      <point x="484" y="1011" type="line"/>
      <point x="755" y="1011" type="line"/>
      <point x="755" y="1045" type="line"/>
      <point x="475" y="1045" type="line"/>
      <point x="475" y="1453" type="line"/>
    </contour>
  </outline>
</glyph>
<glyph name="daggerdbl" format="1">
  <advance width="1057"/>
  <unicode hex="2021"/>
  <outline>
    <contour>
      <point x="432" y="1454" type="line"/>
      <point x="432" y="1048" type="line"/>
      <point x="142" y="1048" type="line"/>
      <point x="142" y="1013" type="line"/>
      <point x="432" y="1013" type="line"/>
      <point x="432" y="545" type="line"/>
      <point x="142" y="545" type="line"/>
      <point x="142" y="508" type="line"/>
      <point x="432" y="508" type="line"/>
      <point x="432" y="152" type="line"/>
      <point x="479" y="152" type="line"/>
      <point x="479" y="508" type="line"/>
      <point x="763" y="508" type="line"/>
      <point x="763" y="545" type="line"/>
      <point x="479" y="545" type="line"/>
      <point x="479" y="1013" type="line"/>
      <point x="763" y="1013" type="line"/>
      <point x="763" y="1048" type="line"/>
      <point x="472" y="1048" type="line"/>
      <point x="472" y="1454" type="line"/>
    </contour>
  </outline>
</glyph>
<glyph name="bullet" format="1">
  <advance width="802"/>
  <unicode hex="2022"/>
  <outline>
    <contour>
      <point x="390" y="465" type="curve" smooth="yes"/>
      <point x="535" y="465"/>
      <point x="693" y="564"/>
      <point x="693" y="782" type="curve" smooth="yes"/>
      <point x="693" y="1000"/>
      <point x="541" y="1100"/>
      <point x="397" y="1100" type="curve" smooth="yes"/>
      <point x="252" y="1100"/>
      <point x="98" y="999"/>
      <point x="98" y="779" type="curve" smooth="yes"/>
      <point x="98" y="562"/>
      <point x="248" y="465"/>
    </contour>
  </outline>
</glyph>
<glyph name="guilsinglright" format="1">
  <advance width="676"/>
  <unicode hex="203A"/>
  <outline>
    <contour>
      <point x="162" y="138" type="line"/>
      <point x="237" y="138" type="line"/>
      <point x="560" y="580" type="line"/>
      <point x="241" y="1007" type="line"/>
      <point x="167" y="1007" type="line"/>
      <point x="479" y="581" type="line"/>
    </contour>
  </outline>
</glyph>
<glyph name="fraction" format="1">
  <advance width="1215"/>
  <unicode hex="2044"/>
  <outline>
    <contour>
      <point x="199" y="0" type="line"/>
      <point x="283" y="0" type="line"/>
      <point x="1002" y="1576" type="line"/>
      <point x="930" y="1576" type="line"/>
    </contour>
  </outline>
</glyph>
<glyph name="Euro" format="1">
  <advance width="1327"/>
  <unicode hex="20AC"/>
  <outline>
    <component base="C"/>
    <contour>
      <point x="7" y="549" type="line"/>
      <point x="929" y="549" type="line"/>
      <point x="942" y="633" type="line"/>
      <point x="218" y="633" type="line"/>
      <point x="219" y="848" type="line"/>
      <point x="942" y="848" type="line"/>
      <point x="956" y="929" type="line"/>
      <point x="30" y="929" type="line"/>
      <point x="18" y="848" type="line"/>
      <point x="173" y="848" type="line"/>
      <point x="172" y="633" type="line"/>
      <point x="20" y="633" type="line"/>
    </contour>
  </outline>
</glyph>
<glyph name="minus" format="1">
  <advance width="1082"/>
  <unicode hex="2212"/>
  <outline>
    <contour>
      <point x="64" y="680" type="line"/>
      <point x="64" y="586" type="line"/>
      <point x="991" y="586" type="line"/>
      <point x="991" y="680" type="line"/>
    </contour>
  </outline>
</glyph>
<glyph name="infinity" format="1">
  <advance width="1735"/>
  <unicode hex="221E"/>
  <outline>
    <contour>
      <point x="865" y="687" type="curve"/>
      <point x="705" y="898"/>
      <point x="589" y="982"/>
      <point x="458" y="982" type="curve" smooth="yes"/>
      <point x="251" y="982"/>
      <point x="113" y="846"/>
      <point x="113" y="642" type="curve" smooth="yes"/>
      <point x="113" y="418"/>
      <point x="253" y="268"/>
      <point x="462" y="268" type="curve" smooth="yes"/>
      <point x="600" y="268"/>
      <point x="717" y="350"/>
      <point x="873" y="556" type="curve"/>
      <point x="1028" y="350"/>
      <point x="1141" y="268"/>
      <point x="1271" y="268" type="curve" smooth="yes"/>
      <point x="1479" y="268"/>
      <point x="1617" y="411"/>
      <point x="1617" y="625" type="curve" smooth="yes"/>
      <point x="1617" y="839"/>
      <point x="1479" y="982"/>
      <point x="1273" y="982" type="curve" smooth="yes"/>
      <point x="1135" y="982"/>
      <point x="1019" y="898"/>
    </contour>
    <contour>
      <point x="835" y="611" type="curve"/>
      <point x="706" y="415"/>
      <point x="600" y="337"/>
      <point x="464" y="337" type="curve" smooth="yes"/>
      <point x="300" y="337"/>
      <point x="190" y="451"/>
      <point x="190" y="622" type="curve" smooth="yes"/>
      <point x="190" y="791"/>
      <point x="297" y="904"/>
      <point x="457" y="904" type="curve" smooth="yes"/>
      <point x="600" y="904"/>
      <point x="708" y="820"/>
    </contour>
    <contour>
      <point x="1531" y="647" type="curve" smooth="yes"/>
      <point x="1531" y="461"/>
      <point x="1428" y="337"/>
      <point x="1273" y="337" type="curve" smooth="yes"/>
      <point x="1162" y="337"/>
      <point x="1056" y="422"/>
      <point x="902" y="636" type="curve"/>
      <point x="1027" y="827"/>
      <point x="1132" y="904"/>
      <point x="1269" y="904" type="curve" smooth="yes"/>
      <point x="1426" y="904"/>
      <point x="1531" y="801"/>
    </contour>
  </outline>
</glyph>
<glyph name="notequal" format="1">
  <advance width="1164"/>
  <unicode hex="2260"/>
  <outline>
    <contour>
      <point x="275" y="53" type="line"/>
      <point x="453" y="378" type="line"/>
      <point x="1003" y="378" type="line"/>
      <point x="1003" y="448" type="line"/>
      <point x="485" y="448" type="line"/>
      <point x="698" y="832" type="line"/>
      <point x="1003" y="832" type="line"/>
      <point x="999" y="896" type="line"/>
      <point x="726" y="896" type="line"/>
      <point x="900" y="1214" type="line"/>
      <point x="833" y="1214" type="line"/>
      <point x="655" y="896" type="line"/>
      <point x="117" y="896" type="line"/>
      <point x="121" y="830" type="line"/>
      <point x="626" y="830" type="line"/>
      <point x="419" y="448" type="line"/>
      <point x="117" y="448" type="line"/>
      <point x="121" y="378" type="line"/>
      <point x="378" y="378" type="line"/>
      <point x="206" y="53" type="line"/>
    </contour>
  </outline>
</glyph>
<glyph name="greaterequal" format="1">
  <advance width="1249"/>
  <unicode hex="2265"/>
  <outline>
    <contour>
      <point x="175" y="248" type="line"/>
      <point x="1057" y="734" type="line"/>
      <point x="1057" y="782" type="line"/>
      <point x="181" y="1306" type="line"/>
      <point x="181" y="1221" type="line"/>
      <point x="1028" y="758" type="line"/>
      <point x="175" y="329" type="line"/>
    </contour>
    <contour>
      <point x="127" y="13" type="line"/>
      <point x="1087" y="13" type="line"/>
      <point x="1087" y="106" type="line"/>
      <point x="127" y="103" type="line"/>
    </contour>
  </outline>
</glyph>
<glyph name="caron.alt" format="1">
  <advance width="844"/>
  <outline>
    <contour>
      <point x="392" y="1082" type="move" name="_caron.alt"/>
    </contour>
    <contour>
      <point x="571" y="1195" type="line"/>
      <point x="644" y="1195" type="line"/>
      <point x="736" y="1528" type="line"/>
      <point x="633" y="1528" type="line"/>
    </contour>
  </outline>
</glyph>
<glyph name="slashbar" format="1">
  <advance width="600"/>
  <outline>
    <contour>
      <point x="294" y="822" type="move" name="_mid"/>
    </contour>
    <contour>
      <point x="66" y="628" type="line"/>
      <point x="553" y="959" type="line"/>
      <point x="553" y="1042" type="line"/>
      <point x="66" y="711" type="line"/>
    </contour>
  </outline>
</glyph>
